<svg width="80" height="80" viewBox="0 0 80 80" fill="none" xmlns="http://www.w3.org/2000/svg">
<path d="M73.5482 61.1613C73.5482 57.4 70.4708 54.3226 66.7095 54.3226H11.9998C8.23855 54.3226 5.16113 57.4 5.16113 61.1613V68C5.16113 71.7613 8.23855 74.8388 11.9998 74.8388H66.7095C70.4708 74.8388 73.5482 71.7613 73.5482 68V61.1613ZM49.6127 67.1452H29.0966C27.6947 67.1452 26.5321 65.9826 26.5321 64.5807C26.5321 63.1788 27.6947 62.0162 29.0966 62.0162H49.6127C51.0147 62.0162 52.1773 63.1788 52.1773 64.5807C52.1773 65.9826 51.0147 67.1452 49.6127 67.1452ZM13.7095 47.4839H20.3773C19.9669 47.0394 19.6934 46.4239 19.6934 45.7742C19.6934 44.3723 20.856 43.2097 22.2579 43.2097H25.6773C27.0792 43.2097 28.2418 44.3723 28.2418 45.7742C28.2418 46.4239 27.9682 47.0394 27.5579 47.4839H35.7644C35.354 47.0394 35.0805 46.4239 35.0805 45.7742C35.0805 44.3723 36.2431 43.2097 37.645 43.2097H41.0644C42.4663 43.2097 43.6289 44.3723 43.6289 45.7742C43.6289 46.4239 43.3553 47.0394 42.945 47.4839H51.1515C50.7411 47.0394 50.4676 46.4239 50.4676 45.7742C50.4676 44.3723 51.6302 43.2097 53.0321 43.2097H56.4515C57.8534 43.2097 59.016 44.3723 59.016 45.7742C59.016 46.4239 58.7424 47.0394 58.3321 47.4839H64.9998L61.1702 32.131C60.4179 29.0878 57.6824 26.9678 54.5366 26.9678H41.9192V16.7097H49.6127C52.4508 16.7097 54.7418 14.4188 54.7418 11.5807C54.7418 8.74263 52.4508 6.45166 49.6127 6.45166H29.0966C26.2586 6.45166 23.9676 8.74263 23.9676 11.5807C23.9676 14.4188 26.2586 16.7097 29.0966 16.7097H36.7902V26.9678H24.1727C21.0269 26.9678 18.2915 29.0878 17.5392 32.131L13.7095 47.4839ZM49.6127 32.9517H53.0321C54.434 32.9517 55.5966 34.1142 55.5966 35.5162C55.5966 36.9181 54.434 38.0807 53.0321 38.0807H49.6127C48.2108 38.0807 47.0482 36.9181 47.0482 35.5162C47.0482 34.1142 48.2108 32.9517 49.6127 32.9517ZM37.645 32.9517H41.0644C42.4663 32.9517 43.6289 34.1142 43.6289 35.5162C43.6289 36.9181 42.4663 38.0807 41.0644 38.0807H37.645C36.2431 38.0807 35.0805 36.9181 35.0805 35.5162C35.0805 34.1142 36.2431 32.9517 37.645 32.9517ZM25.6773 32.9517H29.0966C30.4986 32.9517 31.6611 34.1142 31.6611 35.5162C31.6611 36.9181 30.4986 38.0807 29.0966 38.0807H25.6773C24.2753 38.0807 23.1127 36.9181 23.1127 35.5162C23.1127 34.1142 24.2753 32.9517 25.6773 32.9517Z" fill="#C59677"/>
</svg>
