<svg width="80" height="80" viewBox="0 0 80 80" fill="none" xmlns="http://www.w3.org/2000/svg">
<path d="M43.2283 10.8903C42.0191 9.68174 40.3759 9 38.6707 9H15.4798C11.8834 9 9 11.8819 9 15.4766V38.6559C9 40.3602 9.68209 42.0026 10.8912 43.2422L36.7795 69.1175C39.2908 71.6275 43.4143 71.6275 45.9256 69.1175L69.1165 45.9381C71.6278 43.4281 71.6278 39.3066 69.1165 36.7966L43.2283 10.8903ZM28.9045 28.8945C27.6953 30.1031 25.7421 30.1031 24.5329 28.8945C23.3238 27.686 23.3238 25.7337 24.5329 24.5252C25.7421 23.3166 27.6953 23.3166 28.9045 24.5252C30.1136 25.7337 30.1136 27.686 28.9045 28.8945Z" fill="#C59677"/>
</svg>
