<svg width="80" height="80" viewBox="0 0 80 80" fill="none" xmlns="http://www.w3.org/2000/svg">
<path d="M71 29.4444V56.1852C71 57.7333 69.7318 59 68.1818 59H65.3636C63.8136 59 62.5455 57.7333 62.5455 56.1852V30.8519H58.6282C57.1064 30.8519 55.6127 30.4015 54.3164 29.557L48.7082 25.8133C48.1164 25.4193 47.44 25.2222 46.7636 25.2222H42.3391C41.4091 25.2222 40.5073 25.5881 39.8591 26.2637L31.63 34.4548C30.8973 35.1867 30.8973 36.3689 31.63 37.1007C32.3345 37.8044 33.5745 37.8044 34.2791 37.1007L41.3245 30.0637C42.1418 29.2474 43.4945 29.2474 44.3118 30.0637C45.1291 30.88 45.1291 32.2311 44.3118 33.0474L37.2664 40.0844C36.1109 41.2385 34.5891 41.8578 32.9545 41.8578C31.0664 41.8578 29.3473 41.0133 28.1355 39.5215C26.1909 37.0726 26.6418 33.4696 28.8682 31.2459L36.8436 23.28C38.3091 21.8163 40.2818 21 42.3391 21H46.7636C48.2855 21 49.7791 21.4504 51.0755 22.2948L56.6836 26.0385C57.2473 26.4326 57.9236 26.6296 58.6282 26.6296H68.1818C69.7318 26.6296 71 27.8963 71 29.4444ZM49.4691 38.5081C48.6518 37.6919 47.2991 37.6919 46.4818 38.5081C45.6364 39.3244 45.6364 40.6756 46.4818 41.4919L53.7809 48.7822C54.4573 49.4578 54.8236 50.3304 54.8236 51.2593C54.8236 52.1881 54.4573 53.0889 53.7809 53.7363C53.1045 54.4119 52.2027 54.7778 51.2727 54.7778H31.0664C30.1364 54.7778 29.2345 54.4119 28.5864 53.7363L26.2473 51.4C24.7818 49.9644 22.8091 49.1481 20.7518 49.1481H17.4545V30.8519H20.7518C22.8091 30.8519 24.7818 30.0356 26.2191 28.5719L28.5582 26.2356C28.84 25.9541 29.15 25.7852 29.4882 25.6163L34.1382 21H31.0664C29.0091 21 27.0364 21.8163 25.5709 23.28L23.26 25.5881C22.5836 26.2637 21.6818 26.6296 20.7518 26.6296H11.8182C10.2682 26.6296 9 27.8963 9 29.4444V56.1852C9 57.7333 10.2682 59 11.8182 59H14.6364C16.1864 59 17.4545 57.7333 17.4545 56.1852V53.3704H20.7518C21.6818 53.3704 22.5836 53.7363 23.2318 54.4118L25.5709 56.7481C27.0364 58.1837 29.0091 59 31.0664 59H51.2727C53.2736 59 55.1618 58.24 56.5991 56.8607C59.7555 53.8489 59.5018 48.5289 56.43 45.4607L49.4691 38.5081Z" fill="#C59677"/>
</svg>
