<svg width="80" height="80" viewBox="0 0 80 80" fill="none" xmlns="http://www.w3.org/2000/svg">
<path d="M66.934 29.2413C65.867 27.6396 64.0502 26.6958 62.147 26.6958H49.3721C48.5647 26.6958 47.9302 26.0666 47.9302 25.2657V22.7202C47.9302 19.5741 45.3349 17 42.1628 17H19.093C16.4112 17 14.1619 18.8305 13.5274 21.2902H10.4419C9.63442 21.2902 9 21.9194 9 22.7202C9 23.5211 9.63442 24.1503 10.4419 24.1503H36.3953C37.2028 24.1503 37.8372 24.7795 37.8372 25.5804C37.8372 26.3812 37.2028 27.0104 36.3953 27.0104H13.3256V32.7307H10.4419C9.63442 32.7307 9 33.3599 9 34.1607C9 34.9615 9.63442 35.5908 10.4419 35.5908H29.907H30.6279C31.4353 35.5908 32.0698 36.22 32.0698 37.0208C32.0698 37.8217 31.4353 38.4509 30.6279 38.4509H13.3256V44.1711H10.4419C9.63442 44.1711 9 44.8004 9 45.6012C9 46.402 9.63442 47.0312 10.4419 47.0312C10.4419 47.0312 30.4837 47.0312 30.6279 47.0312C35.7898 47.0312 40.0288 50.8638 40.6344 55.8118C40.7209 56.5268 41.3554 57.0417 42.0763 57.0417H48.0456C48.7665 57.0417 49.3721 56.5268 49.4586 55.8118C50.0642 50.8638 54.3321 47.0312 59.4651 47.0312C63.9926 47.0312 67.8279 50.0344 69.0967 54.1243C69.2409 54.6106 69.9042 54.6964 70.1637 54.2674C70.6828 53.4093 71 52.4083 71 51.3214V37.0208C71 35.9054 70.654 34.7899 70.0195 33.8461L66.934 29.2413ZM68.1163 38.6797C68.1163 39.3375 67.5684 39.881 66.9051 39.881H49.3721C48.5647 39.881 47.9302 39.2517 47.9302 38.4509V30.986C47.9302 30.1851 48.5647 29.5559 49.3721 29.5559H62.147C63.0986 29.5559 64.0214 30.0421 64.5405 30.843L67.626 35.4478C67.9433 35.9054 68.1163 36.4488 68.1163 37.0208V38.6797ZM19.093 57.0417C15.9209 57.0417 13.3256 54.4676 13.3256 51.3214V49.8914H23.6205C22.0056 51.4358 20.9098 53.4951 20.6214 55.8118C20.5349 56.5268 19.9005 57.0417 19.1795 57.0417H19.093ZM30.6279 62.7619C27.4558 62.7619 24.8605 60.1878 24.8605 57.0417C24.8605 53.8955 27.4558 51.3214 30.6279 51.3214C33.8 51.3214 36.3953 53.8955 36.3953 57.0417C36.3953 60.1878 33.8 62.7619 30.6279 62.7619ZM59.4651 62.7619C56.293 62.7619 53.6977 60.1878 53.6977 57.0417C53.6977 53.8955 56.293 51.3214 59.4651 51.3214C62.6372 51.3214 65.2326 53.8955 65.2326 57.0417C65.2326 60.1878 62.6372 62.7619 59.4651 62.7619Z" fill="#C59677"/>
</svg>
