<svg width="80" height="80" viewBox="0 0 80 80" fill="none" xmlns="http://www.w3.org/2000/svg">
<path d="M71 62.0361C71 63.6795 69.5825 65.0241 67.85 65.0241H66.275V41.1205H67.85C69.5825 41.1205 71 42.4651 71 44.1084V62.0361ZM11.15 65.0241H12.725V41.1205H11.15C9.4175 41.1205 8 42.4651 8 44.1084V62.0361C8 63.6795 9.4175 65.0241 11.15 65.0241ZM14.3 23.1928C14.3 19.906 17.135 17.2169 20.6 17.2169H21.3875V14.2289C21.3875 11.3605 23.876 9 26.9 9H52.1C55.124 9 57.6125 11.3605 57.6125 14.2289V17.2169H58.4C61.865 17.2169 64.7 19.906 64.7 23.1928V29.1687C64.7 30.8121 63.2825 32.1566 61.55 32.1566H51.3125V29.1687C51.3125 27.9436 50.2415 26.9277 48.95 26.9277C47.6585 26.9277 46.5875 27.9436 46.5875 29.1687V32.1566H32.4125V29.1687C32.4125 27.9436 31.3415 26.9277 30.05 26.9277C28.7585 26.9277 27.6875 27.9436 27.6875 29.1687V32.1566H17.45C15.7175 32.1566 14.3 30.8121 14.3 29.1687V23.1928ZM26.1125 17.2169H52.8875V14.2289C52.8875 13.8106 52.541 13.4819 52.1 13.4819H26.9C26.459 13.4819 26.1125 13.8106 26.1125 14.2289V17.2169ZM27.6875 38.1325V41.1205C27.6875 42.3455 28.7585 43.3614 30.05 43.3614C31.3415 43.3614 32.4125 42.3455 32.4125 41.1205V38.1325H46.5875V41.1205C46.5875 42.3455 47.6585 43.3614 48.95 43.3614C50.2415 43.3614 51.3125 42.3455 51.3125 41.1205V38.1325H61.55V65.0241C61.55 68.3108 58.715 71 55.25 71H23.75C20.285 71 17.45 68.3108 17.45 65.0241V38.1325H27.6875ZM26.9 53.0723V59.0482C26.9 60.6916 28.3175 62.0361 30.05 62.0361H48.95C50.6825 62.0361 52.1 60.6916 52.1 59.0482V53.0723C52.1 51.4289 50.6825 50.0843 48.95 50.0843H30.05C28.3175 50.0843 26.9 51.399 26.9 53.0723Z" fill="#C59677"/>
</svg>
