<svg width="80" height="80" viewBox="0 0 80 80" fill="none" xmlns="http://www.w3.org/2000/svg">
<path d="M27.6 56.4C27.6 52.99 30.39 50.2 33.8 50.2C37.21 50.2 40 52.99 40 56.4C40 59.81 37.21 62.6 33.8 62.6C30.39 62.6 27.6 59.81 27.6 56.4ZM21.4 62.6C24.81 62.6 27.6 59.81 27.6 56.4C27.6 52.99 24.81 50.2 21.4 50.2C17.99 50.2 15.2 52.99 15.2 56.4C15.2 59.81 17.99 62.6 21.4 62.6ZM64.8 56.4C64.8 52.99 62.01 50.2 58.6 50.2C55.19 50.2 52.4 52.99 52.4 56.4C52.4 59.81 55.19 62.6 58.6 62.6C62.01 62.6 64.8 59.81 64.8 56.4ZM9.899 53.393C9.341 52.463 9 51.378 9 50.2V19.2C9 15.79 11.79 13 15.2 13H46.2C49.61 13 52.4 15.79 52.4 19.2V23.509H61.483C63.56 23.509 65.482 24.532 66.629 26.268L69.946 31.259C70.628 32.282 71 33.491 71 34.7V50.2C71 51.378 70.659 52.463 70.101 53.393C69.822 53.858 69.109 53.765 68.954 53.238C67.59 48.805 63.467 45.55 58.6 45.55C52.834 45.55 48.091 50.076 47.781 55.78C47.75 56.121 47.471 56.4 47.13 56.4H45.27C44.929 56.4 44.65 56.121 44.619 55.78C44.278 50.076 39.566 45.55 33.8 45.55C31.506 45.55 29.367 46.294 27.6 47.534C25.833 46.294 23.694 45.55 21.4 45.55C16.533 45.55 12.41 48.805 11.046 53.238C10.891 53.765 10.178 53.858 9.899 53.393ZM52.4 36.25C52.4 37.118 53.082 37.8 53.95 37.8H66.598C67.311 37.8 67.9 37.211 67.9 36.498V34.7C67.9 34.08 67.714 33.491 67.373 32.964L64.056 28.004C63.467 27.136 62.506 26.609 61.483 26.609H53.95C53.082 26.609 52.4 27.291 52.4 28.159V36.25ZM37.675 35.475C37.675 36.746 38.729 37.8 40 37.8C41.271 37.8 42.325 36.746 42.325 35.475V22.3C42.325 21.029 41.271 19.975 40 19.975C38.729 19.975 37.675 21.029 37.675 22.3V35.475ZM28.375 35.475C28.375 36.746 29.429 37.8 30.7 37.8C31.971 37.8 33.025 36.746 33.025 35.475V22.3C33.025 21.029 31.971 19.975 30.7 19.975C29.429 19.975 28.375 21.029 28.375 22.3V35.475ZM19.075 35.475C19.075 36.746 20.129 37.8 21.4 37.8C22.671 37.8 23.725 36.746 23.725 35.475V22.3C23.725 21.029 22.671 19.975 21.4 19.975C20.129 19.975 19.075 21.029 19.075 22.3V35.475Z" fill="#C59677"/>
</svg>
