<svg width="24" height="24" viewBox="0 0 24 24" fill="none" xmlns="http://www.w3.org/2000/svg">
<g clip-path="url(#clip0_47_1069)">
<path d="M23.9902 19.55C23.8102 20.26 23.4502 20.84 22.9002 21.31C22.2802 21.83 21.5902 22.22 20.8502 22.53C19.5302 23.08 18.1602 23.41 16.7602 23.63C14.8802 23.93 12.9802 24.05 11.0702 23.99C8.88021 23.92 6.72021 23.67 4.61021 23.05C3.58021 22.75 2.57021 22.36 1.67021 21.75C1.02021 21.31 0.44021 20.8 0.16021 20.03C-0.21979 18.98 0.07021 18.08 0.81021 17.3C1.60021 16.48 2.59021 16.01 3.62021 15.62C4.50021 15.29 5.42021 15.08 6.34021 14.87C6.46021 14.84 6.50021 14.89 6.56021 14.98C6.91021 15.53 7.25021 16.08 7.61021 16.62C7.70021 16.76 7.68021 16.79 7.52021 16.82C6.18021 17.04 4.87021 17.35 3.62021 17.91C3.21021 18.1 2.82021 18.32 2.46021 18.6C2.35021 18.69 2.25021 18.79 2.17021 18.91C2.07021 19.07 2.06021 19.24 2.17021 19.4C2.33021 19.65 2.57021 19.83 2.81021 19.98C3.73021 20.57 4.75021 20.9 5.79021 21.16C6.99021 21.47 8.22021 21.64 9.45021 21.74C10.6702 21.84 11.8802 21.87 13.1002 21.82C15.4002 21.73 17.6602 21.46 19.8302 20.63C20.4002 20.42 20.9502 20.16 21.4402 19.78C21.4602 19.77 21.4802 19.75 21.5002 19.74C22.0202 19.31 22.0102 18.97 21.4702 18.56C20.5702 17.88 19.5302 17.54 18.4702 17.24C17.8002 17.05 17.1102 16.91 16.4202 16.81C16.3002 16.79 16.2702 16.76 16.3402 16.65C16.7102 16.09 17.0702 15.52 17.4302 14.95C17.4802 14.87 17.5302 14.84 17.6202 14.86C18.9702 15.15 20.3202 15.49 21.5602 16.14C22.3802 16.57 23.1402 17.09 23.6502 17.92C23.8102 18.19 23.8602 18.49 23.9802 18.76C23.9702 19.02 23.9702 19.27 23.9702 19.53L23.9902 19.55Z" fill="white"/>
<path d="M18.7 5.03C17.78 2.06 15.06 0.01 12 0C11.05 0 9.89997 0.25 9.10997 0.64C7.28997 1.52 6.01997 2.92 5.35997 4.86C4.93997 6.12 4.82997 7.39 5.22997 8.69C5.50997 9.58 5.85997 10.43 6.26997 11.25C7.49997 13.73 9.00997 16.02 10.62 18.25C11.32 19.24 12.68 19.22 13.39 18.23C14.07 17.29 14.72 16.34 15.34 15.37C16.47 13.61 17.53 11.81 18.35 9.87C19.02 8.3 19.22 6.7 18.7 5.03ZM11.99 9.99C10.38 9.99 9.08997 8.66 9.08997 7.02C9.08997 5.38 10.39 4.05 12 4.06C13.61 4.06 14.9 5.38 14.9 7.03C14.9 8.68 13.6 9.99 11.99 9.99Z" fill="white"/>
</g>
<defs>
<clipPath id="clip0_47_1069">
<rect width="24" height="24" fill="white"/>
</clipPath>
</defs>
</svg>
