<svg width="24" height="25" viewBox="0 0 24 25" fill="none" xmlns="http://www.w3.org/2000/svg">
<path d="M16.6841 24.5C16.3451 24.4281 16.006 24.3664 15.672 24.2791C14.1976 23.8989 12.9286 23.1282 11.7418 22.1983C11.1715 21.7513 10.6321 21.2632 10.1183 20.7494C7.86296 18.4887 5.5973 16.2384 3.35733 13.9623C2.20139 12.7909 1.24066 11.4705 0.59847 9.93938C0.177191 8.9375 -0.0591357 7.89452 0.01279 6.80016C0.100128 5.38212 0.644708 4.13876 1.5335 3.03927C2.05753 2.39704 2.65349 1.81646 3.25972 1.25644C4.28723 0.311076 5.62299 0.25456 6.76353 1.07148C7.55985 1.64178 8.19177 2.37649 8.77745 3.14716C9.30661 3.84591 9.84606 4.55493 10.1954 5.36671C10.5191 6.11169 10.5294 6.86182 10.067 7.57597C9.96422 7.73525 9.84092 7.87397 9.69193 7.987C9.28606 8.30555 8.89561 8.64464 8.52571 8.99402C7.91948 9.56945 7.87838 10.2733 8.45892 10.8847C9.01891 11.4756 9.59945 12.0408 10.1749 12.6162C11.2332 13.6746 12.2915 14.7381 13.355 15.7965C13.4886 15.9301 13.6273 16.0534 13.7711 16.1716C14.326 16.6237 14.9476 16.4953 15.4563 16.0174C15.7902 15.704 16.1036 15.3547 16.3656 14.9796C17.0078 14.0651 18.1124 13.8852 19.0731 14.2654C19.5766 14.4658 20.0133 14.7792 20.4602 15.0772C21.2411 15.5961 21.9758 16.1716 22.654 16.8241C23.2859 17.4355 23.8048 18.1239 24 19.0077C24 19.2748 24 19.5369 24 19.804C23.9383 20.4771 23.5993 21.0011 23.1163 21.4533C22.5204 22.0133 21.9861 22.6401 21.3336 23.1436C20.5578 23.7345 19.705 24.1558 18.7648 24.3972C18.4977 24.464 18.2254 24.4383 17.9582 24.4949C17.5267 24.5 17.1054 24.5 16.6841 24.5Z" fill="white"/>
</svg>
